# xmcd
#
# Track frame offsets:
#	150
#	19854
#	39525
#	57649
#	77416
#	98197
#	124832
#	142739
#	158682
#	182614
#
# Disc length: 2709 seconds
#
# Revision: 1
# Processed by: cddbd v1.5.2PL0 Copyright (c) Steve Scherf et al.
# Submitted via: audiograbber 1.83.01
#
DISCID=780a930a
DTITLE=Jay Edward Band - Chest Pain
DYEAR=2018
DGENRE=
TTITLE0=Chest Pain
TTITLE1=Bye Bye Baby
TTITLE2=Shoe String
TTITLE3=Gone Crazy
TTITLE4=Shot from The Saddle
TTITLE5=One For Muddy
TTITLE6=Satisfy You
TTITLE7=My Kind Of Baby
TTITLE8=War Is Over
TTITLE9=Trying To Keep From Crying
EXTD=
EXTT0=
EXTT1=
EXTT2=
EXTT3=
EXTT4=
EXTT5=
EXTT6=
EXTT7=
EXTT8=
EXTT9=
PLAYORDER=
